<?xml version="1.0" encoding="utf-8"?>
<!-- Generator: Adobe Illustrator 24.1.0, SVG Export Plug-In . SVG Version: 6.00 Build 0)  -->
<svg version="1.1" xmlns="http://www.w3.org/2000/svg" xmlns:xlink="http://www.w3.org/1999/xlink" x="0px" y="0px" width="512px"
	 height="512px" viewBox="0 0 512 512" style="enable-background:new 0 0 512 512;" xml:space="preserve">
<style type="text/css">
	.st0{fill:none;stroke:#4E9F54;stroke-width:16;stroke-miterlimit:10;}
	.st1{display:none;}
	.st2{fill:none;stroke:#4E9F54;stroke-width:18;stroke-miterlimit:10;}
</style>
<g id="Layer_2">
	<path class="st0" d="M256.2,445v40.6c0,10,8.1,18.1,18.1,18.1h24.2c4.4,0,8.7-1.8,11.8-4.9l27.3-20.3c1.5-1.5,3.2-2.8,5.1-3.9
		L490.3,383c7.8-4.6,12.6-13,12.6-22.1V209c0-11.6-7.7-21.7-18.9-24.7l-2.6-0.7c-4.3-1.2-8.9-1.2-13.2-0.1l-0.5,0.1
		c-11.3,2.9-19.2,13.1-19.2,24.8v112.8c0,9.2-4.9,17.7-12.9,22.2l-41.1,23.6c-19.5,11.2-48.3,35.6-43.1,13.7l15.2-53.7
		c1.8-7.7,0-15.7-4.9-21.9l-2.4-3c-6.1-7.7-16.1-11.2-25.7-9l-2.4,0.5c-8,1.8-14.6,7.3-17.9,14.8l-55,126.3
		C256.9,438,256.2,441.5,256.2,445z"/>
	<path class="st0" d="M253.9,445v40.6c0,10-8.1,18.1-18.1,18.1h-24.2c-4.4,0-8.7-1.8-11.8-4.9l-27.3-20.3c-1.5-1.5-3.2-2.8-5.1-3.9
		L20.8,383C13,378.4,8.2,370,8.2,361V209c0-11.6,7.7-21.7,18.9-24.7l2.6-0.7c4.3-1.2,8.9-1.2,13.2-0.1l0.5,0.1
		c11.3,2.9,19.2,13.1,19.2,24.8v112.8c0,9.2,4.9,17.7,12.9,22.2l33.1,23.6c19.5,11.2,55.3,35.6,50.1,13.7l-15.2-53.7
		c-1.8-7.7,0-15.7,4.9-21.9l2.4-3c6.1-7.7,16.1-11.2,25.7-9l2.4,0.5c8,1.8,14.6,7.3,17.9,14.8l55,126.3
		C253.2,438,253.9,441.5,253.9,445z"/>
</g>
<g id="Layer_4" class="st1">
</g>
<g id="Layer_3">
	<path class="st2" d="M252.4,293.2c0,0,160.3-127,160.3-217.3c0-79.2-89.5-91.6-149.5,1.3C197.3-23.5,99.6,7.9,99.6,77.3
		S252.4,293.2,252.4,293.2z"/>
</g>
</svg>
