<svg height="512pt" viewBox="0 -1 512.00087 512" width="512pt" xmlns="http://www.w3.org/2000/svg"><path d="m495.125 185.101562c-3.808594-2.167968-7.953125-3.542968-12.324219-4.09375-17.113281-2.167968-33.304687 9.339844-36.878906 26.183594l-20.832031 97.929688c-1.757813 8.246094-6.523438 15.460937-13.414063 20.316406l-53.445312 37.582031 9.265625-36.980469c4.839844-19.320312-6.324219-38.894531-25.421875-44.566406-16.605469-4.914062-34.179688 2.148438-42.738281 17.171875-1.160157 2.03125-2.121094 4.164063-2.855469 6.320313l-33.054688 96.164062c-.550781 1.574219-1.011719 3.238282-1.367187 4.9375-2.683594 12.582032.699218 25.617188 8.882812 35.3125l-14.945312 27.613282-14.945313-27.613282c8.183594-9.683594 11.570313-22.710937 8.898438-35.242187-.328125-1.613281-.78125-3.277344-1.363281-4.976563l-33.070313-96.214844c-.773437-2.234374-1.742187-4.367187-2.859375-6.296874-8.554688-15.023438-26.128906-22.085938-42.742188-17.175782-19.09375 5.671875-30.261718 25.246094-25.421874 44.566406l9.273437 36.980469-53.445313-37.582031c-6.898437-4.855469-11.660156-12.070312-13.410156-20.316406l-20.839844-97.929688c-3.578124-16.847656-19.773437-28.355468-36.867187-26.1875-4.367187.546875-8.515625 1.925782-12.332031 4.097656-11.546875 6.585938-18.085938 19.351563-16.683594 32.554688.003906.046875.007812.09375.015625.140625l14.605469 133.078125c1.417968 12.886719 8.089844 24.867188 18.308594 32.871094l48.59375 38.054687c3.292968 2.582031 8.054687 2 10.636718-1.292969 2.578125-3.292968 2-8.058593-1.292968-10.636718l-48.59375-38.054688c-7.027344-5.503906-11.613282-13.738281-12.585938-22.59375l-14.597656-132.957031c-.003906-.042969-.007813-.089844-.011719-.132813-.800781-7.242187 2.777344-14.253906 9.105469-17.859374 2.074218-1.179688 4.335937-1.929688 6.730468-2.230469 9.339844-1.183594 18.191407 5.097656 20.148438 14.304687l20.839844 97.925782c2.542968 11.996093 9.472656 22.492187 19.507812 29.558593l70.113282 49.300781c2.589843 1.820313 6.039062 1.839844 8.648437.046876 2.609375-1.792969 3.828125-5.015626 3.058594-8.085938l-14.222657-56.734375c-2.863281-11.425781 3.738282-23.003906 15.023438-26.351563 9.824219-2.90625 20.214844 1.261719 25.292969 10.175782.65625 1.140625 1.226562 2.394531 1.679687 3.707031l33.0625 96.175781c.363282 1.070313.648438 2.105469.859375 3.160156 1.972657 9.257813-1.234375 18.898438-8.375 25.164063-2.660156 2.332031-3.347656 6.191406-1.667969 9.300781l27.519532 50.835938h-81.5625l-14.695313-32.453125c-.503906-1.113281-1.269531-2.085938-2.230469-2.839844l-39.1875-30.679687c-3.292968-2.582032-8.058593-2.003907-10.636718 1.292968-2.578125 3.292969-2 8.058594 1.296875 10.636719l37.722656 29.535156 15.941406 35.210938c1.226563 2.710937 3.925781 4.449219 6.902344 4.449219h179.714844c2.972656 0 5.671875-1.742188 6.898437-4.449219l15.945313-35.210938 110.175781-86.269531c10.21875-7.992188 16.890625-19.972656 18.308594-32.871094l14.570312-132.730468c.019532-.121094.035156-.242188.046875-.363282 1.445313-13.25-5.097656-26.078125-16.675781-32.683594zm1.640625 30.742188c-.015625.101562-.027344.199219-.039063.300781l-14.609374 133.078125c-.972657 8.863282-5.558594 17.097656-12.585938 22.59375l-111.640625 87.417969c-.960937.753906-1.726563 1.726563-2.230469 2.839844l-14.695312 32.453125h-71.144532l-5.207031-9.613282 22.304688-41.222656c1.683593-3.105468.992187-6.964844-1.660157-9.296875-7.140624-6.273437-10.351562-15.917969-8.378906-25.183593.230469-1.085938.515625-2.125.863282-3.121094l33.074218-96.214844c.429688-1.269531.996094-2.523438 1.683594-3.726562 5.058594-8.878907 15.453125-13.046876 25.265625-10.144532 11.292969 3.351563 17.894531 14.929688 15.03125 26.355469l-14.214844 56.734375c-.769531 3.070312.453125 6.296875 3.0625 8.089844 2.609375 1.792968 6.058594 1.769531 8.648438-.050782l70.105469-49.300781c10.027343-7.0625 16.957031-17.554687 19.511718-29.550781l20.832032-97.9375c1.957031-9.203125 10.8125-15.484375 20.160156-14.300781 2.394531.300781 4.65625 1.050781 6.722656 2.226562 6.238281 3.558594 9.804688 10.433594 9.140625 17.574219zm0 0"/><path d="m251.398438 287.089844c1.355468 1.039062 2.980468 1.558594 4.601562 1.558594s3.246094-.519532 4.605469-1.558594c.695312-.53125 70.335937-54.03125 118.476562-111.628906 2.683594-3.207032 2.257813-7.988282-.953125-10.671876-3.210937-2.683593-7.988281-2.253906-10.671875.953126-39.964843 47.8125-95.292969 92.902343-111.457031 105.710937-11.722656-9.285156-44.035156-35.527344-76.042969-67.390625-51.789062-51.5625-79.160156-93.964844-79.160156-122.625 0-15.417969 5.296875-29.746094 15.3125-41.429688 9.503906-11.085937 22.882813-19.171874 37.675781-22.761718 44.96875-10.921875 78.804688 19.710937 95.480469 52.019531 1.300781 2.519531 3.898437 4.101563 6.734375 4.101563s5.433594-1.582032 6.734375-4.101563c25.429687-49.273437 65.996094-59.183594 95.480469-52.019531 14.792968 3.589844 28.171875 11.675781 37.675781 22.761718 10.019531 11.683594 15.3125 26.011719 15.3125 41.429688 0 16.082031-8.625 36.542969-25.640625 60.8125-2.398438 3.425781-1.570312 8.152344 1.855469 10.554688 3.429687 2.402343 8.152343 1.570312 10.554687-1.855469 18.835938-26.867188 28.386719-50.253907 28.386719-69.511719 0-19.085938-6.558594-36.824219-18.964844-51.292969-11.554687-13.480469-27.75-23.289062-45.605469-27.625-20.121093-4.886719-41.613281-2.6171872-60.507812 6.398438-17.730469 8.457031-33.199219 22.734375-45.28125 41.675781-12.078125-18.941406-27.550781-33.222656-45.28125-41.675781-18.894531-9.0156252-40.386719-11.285157-60.507812-6.398438-17.855469 4.335938-34.050782 14.144531-45.605469 27.625-12.402344 14.46875-18.960938 32.207031-18.960938 51.292969 0 33.25 28.132813 78.117188 83.621094 133.363281 40.574219 40.394531 81.722656 71.976563 82.132813 72.289063zm0 0"/></svg>