<?xml version="1.0" encoding="utf-8"?>
<!-- Generator: Adobe Illustrator 24.1.0, SVG Export Plug-In . SVG Version: 6.00 Build 0)  -->
<svg version="1.1" id="LOGOTIPO_INICIO" xmlns="http://www.w3.org/2000/svg" xmlns:xlink="http://www.w3.org/1999/xlink" x="0px"
	 y="0px" width="234px" height="75.7px" viewBox="0 0 234 75.7" style="enable-background:new 0 0 234 75.7;" xml:space="preserve">
<style type="text/css">
	.st0{fill:none;}
	.st1{fill:none;stroke:#FFFFFF;stroke-width:2;}
	.st2{fill:#FFFFFF;}
	.st3{enable-background:new    ;}
</style>
<g id="Rectángulo_2">
	<path class="st0" d="M8,0h59c4.4,0,8,3.6,8,8v59.7c0,4.4-3.6,8-8,8H8c-4.4,0-8-3.6-8-8V8C0,3.6,3.6,0,8,0z"/>
	<path class="st1" d="M8,1h59c3.9,0,7,3.1,7,7v59.7c0,3.9-3.1,7-7,7H8c-3.9,0-7-3.1-7-7V8C1,4.1,4.1,1,8,1z"/>
</g>
<path id="Trazado_1" class="st2" d="M11.5,20.4c0-1.1,0.4-2.1,1.2-2.9c0.7-0.8,1.8-1.2,2.8-1.2c1.1,0,2.2,0.4,2.9,1.2
	c0.8,0.8,1.2,1.8,1.2,2.9v24.5c0,1,0.2,2.1,0.5,3c0.3,0.9,0.8,1.7,1.5,2.4c0.6,0.7,1.4,1.3,2.3,1.7c0.9,0.4,1.9,0.6,3,0.6
	c1.9,0.1,3.7-0.7,4.8-2.2c1.1-1.6,1.7-3.5,1.6-5.5V27.6c0-1.1,0.4-2.1,1.2-2.9c0.8-0.8,1.8-1.2,2.9-1.2c1.1,0,2.2,0.4,2.9,1.2
	c0.8,0.8,1.2,1.8,1.2,2.9V45c-0.1,2,0.5,3.9,1.7,5.4c1.1,1.5,2.9,2.3,4.8,2.2c1,0,2-0.2,2.9-0.6c0.9-0.4,1.6-1,2.3-1.7
	c0.6-0.7,1.1-1.5,1.5-2.4c0.4-1,0.5-2,0.5-3V20.4c0-1.1,0.4-2.2,1.2-2.9c0.8-0.8,1.8-1.2,2.9-1.2c1.1,0,2.1,0.4,2.9,1.2
	c0.8,0.8,1.2,1.8,1.2,2.9v24.5c0,2.1-0.4,4.2-1.1,6.2c-0.7,1.9-1.8,3.6-3.2,5.1c-1.4,1.5-3,2.6-4.9,3.5c-1.9,0.9-4,1.3-6.2,1.3
	c-2,0-4.1-0.4-6-1.2c-1.7-0.7-3.3-1.8-4.6-3c-1.4,1.3-2.9,2.3-4.6,3.1c-1.9,0.8-3.9,1.2-5.9,1.1c-2.1,0-4.2-0.4-6.1-1.3
	c-1.8-0.8-3.5-2-4.9-3.5c-2.8-3-4.4-7.1-4.4-11.2L11.5,20.4z"/>
<g class="st3">
	<path class="st2" d="M94.8,38.9v0.5c-1.5,0.1-2.2,1.1-2.4,3.1c-0.1,0.9-0.1,2-0.1,3.2c0,1.3,0,2.7,0,4.3c2.2-2,4-3.8,5.5-5.2
		c1.5-1.4,2.7-2.6,3.5-3.5c0.7-0.7,1-1.2,1-1.5c0-0.2-0.2-0.3-0.5-0.4H101l-0.1-0.5h6.1l-0.1,0.5c-1,0-2.2,0.7-3.8,2.2
		c-1.8,1.8-3.3,3.4-4.6,4.8c-1.3,1.4-2.4,2.6-3.3,3.6c0.4,0.4,1,1,1.9,1.8s1.9,1.9,3.2,3.3c1.3,1.3,2.3,2.4,3.3,3.3
		c0.9,0.9,1.7,1.7,2.4,2.2c1.9,1.7,3.3,2.6,4.1,2.6c0,0,0,0.2,0,0.6h-4.3L93.4,51.5l-1,1.2c0,1,0,2.1,0,3.2c0,1.1,0,2.4,0.1,3.6
		c0,1.5,0.4,2.5,1.2,3.1c0.4,0.4,0.9,0.5,1.3,0.4c0,0.3,0,0.5,0,0.6h-7.3v-0.6c0,0,0.1,0,0.1,0c0,0,0.1,0,0.2,0s0.2,0,0.3-0.1
		c0.5-0.1,0.9-0.3,1.2-0.6c0.4-0.5,0.7-1.3,0.7-2.3c0.1-1,0.1-2.3,0.1-3.8c0-1.5,0.1-3.2,0.1-5.2c0-2.1,0-3.9,0-5.3
		c0-1.4-0.1-2.6-0.2-3.4c-0.2-2-1-3.1-2.5-3.1v-0.5H94.8z"/>
	<path class="st2" d="M128.5,38.9l-0.2,4.1h-0.6c-0.1-2-0.9-2.9-2.6-2.9l-8.4,0l-0.1,9.8c1.9,0,3.6,0,4.9,0c1.3,0,2.4,0,3.1-0.1
		c0.9,0,1.5-0.4,1.8-1c0.2-0.4,0.3-0.8,0.2-1.1h0.6v5.6h-0.6c0-1.5-0.7-2.2-1.8-2.2l-8.1,0c0-0.1,0,0.3,0,1.2c0,0.8,0,2.1,0,3.9v6
		c0.4,0.1,3.5,0.2,9.3,0.2c1.5,0,2.4-0.8,2.4-2.3c0.2,0,0.4,0,0.6,0c0,0.6,0,1.2,0,1.8c0,0.6,0,1.2,0,1.8h-17.1l0-0.5
		c1.7-0.1,2.6-0.8,2.6-1.8c0-4.8,0-8.8,0-12.1c0-3.3,0-6-0.1-7.9c0-0.7-0.4-1.2-1.2-1.6c-0.3-0.1-0.7-0.3-1.1-0.3v-0.5H128.5z"/>
	<path class="st2" d="M140.3,38.9v0.5c-1.7,0.2-2.6,1.3-2.6,3.2c0,3.7,0,7.1,0,10.2c0,3.1,0.1,5.9,0.2,8.5c0,0.7,0.4,1.1,1.1,1.1
		c2.3,0.1,4.2,0.2,6,0.2c1.2,0,2-0.5,2.5-1.4c0.2-0.4,0.3-0.8,0.3-1.4h0.5v4h-15.5v-0.5c0.4,0,0.9,0,1.3-0.2c0.6-0.3,1-0.8,1.1-1.5
		c0.1-0.6,0.2-3.6,0.3-8.9c0-2.6,0.1-4.7,0.1-6.4c0-1.7,0-3,0-3.8c-0.1-2-0.9-2.9-2.7-2.9v-0.5H140.3z"/>
	<path class="st2" d="M157.5,38.9v0.5c-1.7,0.2-2.6,1.3-2.6,3.2c0,3.7,0,7.1,0,10.2c0,3.1,0.1,5.9,0.2,8.5c0,0.7,0.4,1.1,1.1,1.1
		c2.3,0.1,4.2,0.2,6,0.2c1.2,0,2-0.5,2.5-1.4c0.2-0.4,0.3-0.8,0.3-1.4h0.5v4H150v-0.5c0.4,0,0.9,0,1.3-0.2c0.6-0.3,1-0.8,1.1-1.5
		c0.1-0.6,0.2-3.6,0.3-8.9c0-2.6,0.1-4.7,0.1-6.4c0-1.7,0-3,0-3.8c-0.1-2-0.9-2.9-2.7-2.9v-0.5H157.5z"/>
	<path class="st2" d="M184,38.9l-0.2,4.1h-0.6c-0.1-2-0.9-2.9-2.6-2.9l-8.4,0l-0.1,9.8c1.9,0,3.6,0,4.9,0c1.3,0,2.4,0,3.1-0.1
		c0.9,0,1.5-0.4,1.8-1c0.2-0.4,0.3-0.8,0.2-1.1h0.6v5.6h-0.6c0-1.5-0.7-2.2-1.8-2.2l-8.1,0c0-0.1,0,0.3,0,1.2c0,0.8,0,2.1,0,3.9v6
		c0.4,0.1,3.5,0.2,9.3,0.2c1.5,0,2.4-0.8,2.4-2.3c0.2,0,0.4,0,0.6,0c0,0.6,0,1.2,0,1.8s0,1.2,0,1.8h-17.1l0-0.5
		c1.7-0.1,2.6-0.8,2.6-1.8c0-4.8,0-8.8,0-12.1c0-3.3,0-6-0.1-7.9c0-0.7-0.4-1.2-1.2-1.6c-0.3-0.1-0.7-0.3-1.1-0.3v-0.5H184z"/>
	<path class="st2" d="M207.3,63.7c-1.2,0-4.2-3.6-9.1-10.8c-1.5,0.1-2.6,0.1-3.4,0.1c-0.8,0-1.4,0-1.6,0c-0.1,1.8-0.1,3.3-0.1,4.5
		s0,2.3,0.1,3.1c0.1,1.6,1,2.5,2.7,2.6v0.5h-7.4v-0.5c0.1,0,0.2,0,0.3,0c1.3,0,2-0.9,2-2.8c0.1-1.4,0.1-4.5,0.1-9.2c0-2.4,0-4.4,0-6
		c0-1.5-0.1-2.6-0.1-3.3c-0.1-1.7-0.9-2.5-2.3-2.5v-0.5h11c1.9,0,3.5,0.6,4.9,1.8c1.5,1.3,2.3,3.2,2.3,5.4c0,2.1-1,3.8-2.9,5.1
		c-0.8,0.5-1.7,0.9-2.9,1.2c0.6,0.8,1.2,1.6,1.8,2.4c0.6,0.8,1.2,1.6,1.7,2.4c0.8,1.1,1.6,2.1,2.2,2.8c0.6,0.7,1.1,1.3,1.5,1.8
		c0.8,0.8,1.8,1.3,2.8,1.4v0.5H207.3z M203.8,46.1c0-2.2-0.7-3.8-2.2-4.8c-1.1-0.8-2.5-1.2-4-1.2c-1,0-2.5,0.1-4.3,0.2
		c-0.1,1.8-0.2,3.6-0.2,5.4c0,1.8,0,3.7,0.1,5.6c0,0,0.1,0,0.4,0.1c0.3,0,0.7,0.1,1.2,0.1c0.3,0,0.7,0,1,0c0.4,0,0.7,0,1.1,0
		c1.8,0,3.3-0.3,4.5-1C203,49.5,203.8,48.1,203.8,46.1z"/>
	<path class="st2" d="M232.8,38.9v4.3h-0.4c-0.3-1.8-1.3-2.7-3.1-2.7h-5.8c0-0.1,0,0.5,0,1.8s0,3.5,0,6.4c0,2.9,0,5.2,0,7
		c0,1.8,0,3,0,3.7c0,2.6,0.9,3.9,2.6,3.8v0.5h-7.3v-0.5c0.2,0,0.3,0.1,0.4,0.1c1.2,0,1.9-1,1.9-3L221,40.4h-6.4
		c-1.3,0-2.1,0.8-2.5,2.5h-0.5v-4.1H232.8z"/>
</g>
<g class="st3">
	<path class="st2" d="M90.8,14v0.3c-0.8,0-1.2,0.5-1.2,1.3c0,0.4,0.1,1,0.4,1.7l4.3,10.3l5.3-13.9l1.4,0.8c1.2,3,2.3,5.5,3.1,7.5
		s1.5,3.6,2,4.7c1.3-3.4,2.4-6,3.1-7.8c0.7-1.7,1.1-2.7,1.1-2.8c0.1-0.3,0.2-0.6,0.2-0.8c0-0.7-0.4-1-1.2-1.1v-0.3h4.2v0.3
		c0,0-0.1,0-0.1,0c-0.8,0-1.6,1.1-2.4,3.3c-1.1,2.8-2,5.3-2.8,7.4c-0.8,2.1-1.5,3.9-2.1,5.3h-0.3L100,15.9l-5.8,14.5H94l-5.8-13.6
		c-0.5-1-0.9-1.7-1.5-2.1c-0.3-0.3-0.6-0.4-0.7-0.3V14H90.8z"/>
	<path class="st2" d="M131.7,21.7c0,2.3-0.7,4.3-2.1,5.9c-1.5,1.8-3.6,2.8-6.1,2.8c-2.5,0-4.5-0.9-6-2.6c-1.3-1.6-2-3.5-2-5.9
		c0-2.3,0.8-4.2,2.4-5.7c1.6-1.5,3.6-2.3,6-2.3c2.5,0,4.5,0.8,5.9,2.5C131.1,17.7,131.7,19.5,131.7,21.7z M130,21.9
		c0-2.4-0.6-4.2-1.7-5.4c-1.1-1.3-2.6-1.9-4.6-1.9c-1.7,0-3.2,0.6-4.4,1.9c-1.4,1.4-2.1,3.3-2.1,5.6c0,2.3,0.7,4.2,2.1,5.5
		c1.2,1.2,2.8,1.8,4.5,1.8c1.5,0,2.9-0.6,4-1.8C129.3,26.2,130,24.3,130,21.9z"/>
	<path class="st2" d="M140.3,14.1v0.3c-1.1,0.1-1.6,0.8-1.7,2c0,2.4,0,4.6,0,6.5c0,2,0,3.8,0.1,5.5c0,0.5,0.3,0.7,0.7,0.7
		c1.5,0.1,2.7,0.1,3.8,0.1c0.8,0,1.3-0.3,1.6-0.9c0.1-0.2,0.2-0.5,0.2-0.9h0.3V30h-10v-0.3c0.3,0,0.6,0,0.8-0.1
		c0.4-0.2,0.6-0.5,0.7-1c0-0.4,0.1-2.3,0.2-5.7c0-1.7,0-3,0-4.1s0-1.9,0-2.5c0-1.3-0.6-1.9-1.7-1.9v-0.3H140.3z"/>
	<path class="st2" d="M159.6,14.1l-0.1,2.6h-0.4c0-1.3-0.6-1.9-1.7-1.9l-5.4,0l-0.1,6.3c2.5,0,4.2,0,5.1,0c0.6,0,1-0.2,1.2-0.6
		c0.1-0.3,0.2-0.5,0.1-0.7h0.4v3.7h-0.4c0-0.9-0.4-1.4-1.2-1.4l-5.2,0l0,5.8c0,0.9,0.2,1.4,0.7,1.7c0.2,0.1,0.5,0.2,1,0.2V30h-4.8
		l0-0.3c1-0.1,1.5-0.4,1.6-1c0-0.1,0-0.7,0-1.8c0-1.1,0-2.6,0-4.6c0-1.7,0-3.1,0-4.2c0-1.1,0-1.9,0-2.5c0-0.4-0.3-0.7-0.8-1
		c-0.1-0.1-0.2-0.1-0.3-0.2s-0.3-0.1-0.4-0.1v-0.3H159.6z"/>
	<path class="st2" d="M172.2,13.7c1.4,0,2.7,0.3,3.7,1l0.1,2.8h-0.5c0-1-0.5-1.8-1.4-2.3c-0.7-0.4-1.7-0.6-2.8-0.6
		c-1.4,0-2.7,0.5-3.8,1.6c-1.5,1.3-2.2,3.2-2.2,5.6c0,2.5,0.7,4.4,2.2,5.9c1.2,1.2,2.5,1.8,4,1.8c1.4,0,2.6-0.2,3.5-0.7
		c0-0.9,0-1.7,0-2.4s0-1.4,0-2.1c0-1.2-0.6-1.8-1.8-1.8c-0.1,0-0.2,0-0.3,0V22l3.6,0l0,7.4c-1.4,0.6-3,1-4.8,1c-2,0-3.6-0.5-5.1-1.6
		c-1.9-1.4-2.8-3.6-2.8-6.4c0-3.2,1.1-5.5,3.4-7C168.6,14.2,170.3,13.7,172.2,13.7z"/>
	<path class="st2" d="M192.4,30l0-0.4c0.9,0,1.3-0.3,1.3-0.8c0,0,0-0.1,0-0.2c-0.1-0.2-0.8-2.1-2.3-5.6h-6l-2.6,5.7
		c-0.1,0.2-0.1,0.3-0.1,0.4c0,0.3,0.2,0.5,0.6,0.5c0.1,0,0.2,0,0.3,0c0.1,0,0.2,0,0.3,0V30h-3.9c0,0,0-0.1,0-0.4
		c0,0.1,0.2,0.1,0.4,0c0.3-0.1,0.5-0.1,0.7-0.2c0.3-0.1,1.4-2.4,3.4-6.9c0.9-1.9,1.5-3.4,2-4.6c0.5-1.2,0.8-2,1-2.4
		c0-0.1,0-0.1,0-0.2c0-0.1,0-0.2-0.1-0.3s-0.1-0.2-0.2-0.2c-0.1-0.1-0.2-0.1-0.2-0.2c-0.1,0-0.2-0.1-0.2-0.1c-0.1,0-0.3,0-0.4,0
		s-0.3,0-0.5,0v-0.4h3.5l6.1,14.6c0.2,0.4,0.5,0.7,0.7,0.8c0.1,0.1,0.4,0.1,0.8,0.1c0,0,0,0.1,0,0.2c0,0.1,0,0.1,0,0.2H192.4z
		 M188.5,15.8l-2.7,6.1h5.1L188.5,15.8z"/>
	<path class="st2" d="M203.6,14.1c0.5,0.7,1.1,1.6,1.9,2.7c0.8,1.1,1.8,2.4,2.9,4c0.8,1,1.6,2.1,2.3,3.1c0.8,1,1.5,2,2.3,3.1
		c-0.1-7.4-0.1-11.1-0.1-11.1c0-0.6-0.3-1-0.9-1.2c-0.1,0-0.2-0.1-0.4-0.1c-0.1,0-0.3-0.1-0.4-0.1v-0.3h4.2l0,0.3
		c-0.3,0-0.5,0.1-0.8,0.3c-0.4,0.3-0.6,0.9-0.6,1.6c0,2.5,0,4.9,0,7.2c0,2.3,0.1,4.4,0.1,6.5h-0.9l-10.1-13.5c0,2.8,0,5.1,0,6.8
		c0,1.8,0,3.1,0,3.9c-0.1,1.7,0.5,2.5,1.7,2.5V30h-4.5l0.1-0.3c1.2-0.3,1.7-1.1,1.7-2.5l0-9.9c0-1.7-0.6-2.7-1.8-2.9v-0.3H203.6z"/>
	<path class="st2" d="M228.6,13.7c1.4,0,2.7,0.3,3.7,1l0.1,2.8h-0.5c0-1-0.5-1.8-1.4-2.3c-0.7-0.4-1.7-0.6-2.8-0.6
		c-1.4,0-2.7,0.5-3.8,1.6c-1.5,1.3-2.2,3.2-2.2,5.6c0,2.5,0.7,4.4,2.2,5.9c1.2,1.2,2.5,1.8,4,1.8c1.4,0,2.6-0.2,3.5-0.7
		c0-0.9,0-1.7,0-2.4s0-1.4,0-2.1c0-1.2-0.6-1.8-1.8-1.8c-0.1,0-0.2,0-0.3,0V22l3.6,0l0,7.4c-1.4,0.6-3,1-4.8,1c-2,0-3.6-0.5-5.1-1.6
		c-1.9-1.4-2.8-3.6-2.8-6.4c0-3.2,1.1-5.5,3.4-7C225,14.2,226.7,13.7,228.6,13.7z"/>
</g>
</svg>
