<svg id="Capa_1" enable-background="new 0 0 512 512" height="512" viewBox="0 0 512 512" width="512" xmlns="http://www.w3.org/2000/svg"><g><g><path d="m512 256c0-15.442-35.507-37.685-42.624-41.987-.198-.12-.396-.235-.594-.354 12.484-17.002 28.657-43.736 23.731-55.626-4.925-11.891-35.291-19.363-56.124-22.555.605-2.428 1.188-4.868 1.717-7.328 2.774-12.885 8.223-43.859-1.087-53.169-9.321-9.322-40.342-3.855-53.245-1.072-2.435.525-4.849 1.102-7.253 1.701-3.188-20.796-10.667-51.199-22.555-56.123-11.883-4.92-38.668 11.282-55.627 23.731-.119-.198-.234-.396-.354-.594-4.3-7.118-26.543-42.624-41.985-42.624s-37.685 35.506-41.986 42.624c-.115.191-.227.383-.342.574-9.651-7.145-19.583-13.354-28.537-17.806-16.847-8.377-23.533-7.381-27.102-5.905-11.926 4.939-19.354 34.831-22.567 56.121-2.437-.608-4.885-1.191-7.354-1.722-12.877-2.771-43.827-8.208-53.131 1.095-9.307 9.306-3.866 40.263-1.095 53.14.531 2.47 1.116 4.919 1.724 7.357-20.786 3.187-51.2 10.668-56.124 22.556-4.923 11.886 11.287 38.674 23.731 55.626-.198.119-.396.234-.594.354-7.116 4.301-42.623 26.544-42.623 41.986s35.507 37.685 42.624 41.987c.198.12.396.235.594.354-12.467 16.981-28.655 43.737-23.731 55.626 4.923 11.886 35.292 19.361 56.104 22.552-3.52 14.22-5.333 27.219-5.714 36.592-.168 4.139 3.051 7.63 7.189 7.798.104.004.207.006.31.006 4.002 0 7.325-3.16 7.489-7.195 1.016-25.002 11.475-63.988 29.001-89.432 3.063.305 6.04.461 8.914.461 18.587 0 36.731-7.845 52.967-22.789 8.187 14.239 20.053 26.106 34.292 34.292-14.944 16.236-22.789 34.382-22.789 52.968 0 2.874.156 5.85.461 8.913-25.316 17.431-64.2 27.907-89.166 28.99-4.139.18-7.348 3.68-7.168 7.818.175 4.028 3.495 7.175 7.487 7.175.11 0 .221-.002.331-.007 9.306-.404 22.189-2.223 36.282-5.715 3.18 20.729 10.67 51.195 22.555 56.118 1.495.62 3.226.904 5.144.904 13.329 0 35.667-13.76 50.482-24.637.119.198.235.397.355.596 4.302 7.119 26.545 42.625 41.987 42.625s37.685-35.506 41.986-42.624c.12-.198.235-.396.354-.594 14.766 10.837 37.158 24.634 50.494 24.634 1.913 0 3.642-.285 5.132-.902 11.89-4.925 19.367-35.318 22.555-56.124 2.435.607 4.882 1.191 7.349 1.722 7.479 1.61 21.054 4.12 32.946 4.12 8.588 0 16.299-1.31 20.201-5.212 9.306-9.305 3.866-40.259 1.096-53.136-.532-2.471-1.116-4.922-1.725-7.361 20.766-3.184 51.2-10.669 56.123-22.556 4.923-11.885-11.287-38.676-23.73-55.627.198-.119.396-.234.593-.353 7.119-4.302 42.626-26.545 42.626-41.987zm-15.164 0c-2.008 4.286-14.42 16.934-37.479 30.497-25.124 14.777-50.688 23.253-70.138 23.253-16.247 0-31.797-7.456-46.275-22.167 3.593-9.86 5.555-20.496 5.555-31.583 0-10.903-1.892-21.557-5.541-31.597 14.474-14.701 30.02-22.152 46.261-22.152 19.449 0 45.014 8.476 70.138 23.253 23.059 13.562 35.471 26.21 37.479 30.496zm-18.33-92.165c-.205 5.062-7.717 22.303-22.921 42.465-14.146-7.291-28.255-12.666-41.393-15.813 7.049-11.516 13.244-25.412 18.068-40.474 25.012 3.506 42.522 10.389 46.246 13.822zm-130.34-130.344c3.501 3.735 10.296 20.907 13.824 46.247-15.064 4.824-28.959 11.019-40.478 18.07-3.148-13.139-8.523-27.249-15.815-41.396 20.408-15.42 37.353-22.756 42.469-22.921zm-92.166-18.327c4.286 2.007 16.934 14.42 30.496 37.478 14.777 25.124 23.253 50.688 23.253 70.138 0 16.24-7.45 31.786-22.15 46.261-10.04-3.649-20.695-5.541-31.599-5.541-11.087 0-21.724 1.963-31.583 5.555-14.71-14.479-22.166-30.03-22.166-46.276 0-19.449 8.476-45.014 23.253-70.138 13.562-23.057 26.21-35.47 30.496-37.477zm-92.165 18.328c5.105.171 22.06 7.503 42.468 22.92-7.292 14.147-12.667 28.258-15.815 41.397-11.517-7.05-25.415-13.245-40.478-18.069 3.533-25.341 10.349-42.526 13.825-46.248zm-78.13 52.213c3.974-1.418 18.957-1.792 41.739 3.395 23.265 5.297 44.973 14.239 60.269 24.758-.306 3.066-.462 6.045-.462 8.922 0 18.587 7.845 36.73 22.789 52.967-14.24 8.187-26.106 20.053-34.293 34.293-16.236-14.945-34.38-22.79-52.967-22.79-2.877 0-5.856.156-8.923.462-10.518-15.294-19.458-36.998-24.756-60.26-5.189-22.787-4.814-37.773-3.396-41.747zm-52.214 78.129c3.735-3.501 20.909-10.297 46.248-13.824 4.824 15.063 11.018 28.96 18.068 40.477-13.139 3.148-27.249 8.523-41.396 15.815-15.418-20.407-22.754-37.352-22.92-42.468zm46.197 198.145c-24.984-3.508-42.473-10.385-46.194-13.815.207-5.061 7.718-22.305 22.921-42.465 14.132 7.283 28.226 12.655 41.352 15.804-7.751 12.57-13.703 26.707-18.079 40.476zm43.092-52.229c-19.449 0-45.014-8.476-70.138-23.253-23.058-13.563-35.47-26.211-37.478-30.497 2.008-4.286 14.42-16.934 37.479-30.497 25.124-14.777 50.688-23.253 70.138-23.253 16.246 0 31.796 7.455 46.275 22.166-3.593 9.86-5.556 20.497-5.556 31.584s1.963 21.723 5.555 31.583c-14.478 14.711-30.028 22.167-46.275 22.167zm55.72-53.75c0-42.733 34.767-77.5 77.5-77.5 15.941 0 31.252 4.8 44.274 13.882 3.396 2.369 8.071 1.535 10.441-1.862s1.536-8.072-1.861-10.442c-2.237-1.56-4.536-3.001-6.88-4.348 14.934-16.232 22.774-34.371 22.774-52.951 0-2.876-.156-5.854-.461-8.918 15.274-10.504 36.927-19.434 60.162-24.737 22.842-5.213 37.865-4.841 41.846-3.419 1.419 3.977 1.792 18.973-3.403 41.774-5.299 23.255-14.237 44.945-24.75 60.233-3.066-.306-6.045-.462-8.922-.462-18.581 0-36.719 7.84-52.951 22.775-1.345-2.342-2.785-4.639-4.343-6.874-2.369-3.397-7.046-4.231-10.441-1.863-3.398 2.369-4.232 7.044-1.863 10.442 9.08 13.022 13.879 28.331 13.879 44.27 0 42.733-34.767 77.5-77.5 77.5s-77.501-34.767-77.501-77.5zm-14.666 222.509c-3.494-3.731-10.29-20.893-13.819-46.213 13.775-4.377 27.92-10.325 40.481-18.066 3.149 13.128 8.521 27.224 15.806 41.358-20.408 15.419-37.353 22.755-42.468 22.921zm92.166 18.327c-4.286-2.007-16.934-14.42-30.496-37.478-14.777-25.124-23.253-50.688-23.253-70.138 0-16.245 7.453-31.797 22.164-46.276 9.86 3.593 20.498 5.556 31.585 5.556s21.724-1.963 31.584-5.556c14.711 14.48 22.165 30.032 22.165 46.276 0 19.449-8.476 45.014-23.253 70.138-13.562 23.058-26.21 35.471-30.496 37.478zm92.162-18.328c-5.114-.173-22.062-7.507-42.465-22.92 7.292-14.147 12.667-28.257 15.815-41.396 11.516 7.05 25.413 13.244 40.475 18.068-3.507 25.019-10.395 42.532-13.825 46.248zm78.133-52.213c-3.977 1.418-18.966 1.792-41.754-3.398-23.261-5.298-44.962-14.238-60.254-24.755.306-3.066.462-6.045.462-8.922 0-18.585-7.844-36.732-22.788-52.968 14.239-8.187 26.105-20.053 34.292-34.292 16.236 14.944 34.38 22.789 52.967 22.789 2.877 0 5.856-.156 8.922-.462 10.518 15.294 19.459 37 24.757 60.264 5.188 22.786 4.814 37.771 3.396 41.744zm52.214-78.129c-3.734 3.499-20.909 10.297-46.248 13.824-4.824-15.063-11.019-28.96-18.069-40.477 13.139-3.148 27.249-8.523 41.396-15.815 15.418 20.408 22.755 37.352 22.921 42.468z"/><path d="m256 131.338c15.163 0 27.5-12.336 27.5-27.5s-12.337-27.5-27.5-27.5-27.5 12.336-27.5 27.5 12.337 27.5 27.5 27.5zm0-40c6.893 0 12.5 5.607 12.5 12.5s-5.607 12.5-12.5 12.5-12.5-5.607-12.5-12.5 5.607-12.5 12.5-12.5z"/><path d="m256 380.662c-15.163 0-27.5 12.336-27.5 27.5s12.337 27.5 27.5 27.5 27.5-12.336 27.5-27.5-12.337-27.5-27.5-27.5zm0 40c-6.893 0-12.5-5.607-12.5-12.5s5.607-12.5 12.5-12.5 12.5 5.607 12.5 12.5-5.607 12.5-12.5 12.5z"/><path d="m363.595 175.893c7.042 0 14.085-2.681 19.446-8.042 10.721-10.722 10.721-28.168 0-38.89-10.723-10.723-28.17-10.723-38.893 0-10.721 10.722-10.721 28.168 0 38.89 5.362 5.361 12.405 8.042 19.447 8.042zm-8.839-36.327c2.437-2.437 5.638-3.655 8.839-3.655s6.402 1.218 8.839 3.655c4.873 4.874 4.873 12.805 0 17.678-4.873 4.874-12.805 4.874-17.678 0-4.873-4.873-4.873-12.804 0-17.678z"/><path d="m167.852 383.04c10.721-10.722 10.721-28.168 0-38.891-10.723-10.723-28.17-10.723-38.893 0-10.721 10.722-10.721 28.168 0 38.89 5.361 5.361 12.404 8.042 19.446 8.042s14.085-2.68 19.447-8.041zm-28.286-28.284c2.437-2.437 5.638-3.655 8.839-3.655s6.402 1.218 8.839 3.655c4.873 4.874 4.873 12.805 0 17.678-4.873 4.874-12.805 4.874-17.678 0s-4.873-12.805 0-17.678z"/><path d="m408.162 228.5c-15.163 0-27.5 12.336-27.5 27.5s12.337 27.5 27.5 27.5 27.5-12.336 27.5-27.5-12.337-27.5-27.5-27.5zm0 40c-6.893 0-12.5-5.607-12.5-12.5s5.607-12.5 12.5-12.5 12.5 5.607 12.5 12.5-5.607 12.5-12.5 12.5z"/><path d="m103.838 228.5c-15.163 0-27.5 12.336-27.5 27.5s12.337 27.5 27.5 27.5 27.5-12.336 27.5-27.5-12.337-27.5-27.5-27.5zm0 40c-6.893 0-12.5-5.607-12.5-12.5s5.607-12.5 12.5-12.5 12.5 5.607 12.5 12.5-5.608 12.5-12.5 12.5z"/><path d="m344.148 344.15c-10.721 10.722-10.721 28.168 0 38.89 5.361 5.361 12.404 8.042 19.446 8.042s14.085-2.681 19.446-8.042c10.721-10.722 10.721-28.168 0-38.89-10.722-10.723-28.169-10.724-38.892 0zm28.286 28.284c-4.873 4.874-12.805 4.874-17.678 0-4.873-4.874-4.873-12.805 0-17.678 4.873-4.874 12.805-4.874 17.678 0 4.873 4.873 4.873 12.804 0 17.678z"/><path d="m128.959 167.851c5.361 5.361 12.404 8.042 19.446 8.042s14.085-2.681 19.446-8.042c10.721-10.722 10.721-28.168 0-38.89-10.723-10.723-28.17-10.723-38.893 0-10.72 10.721-10.72 28.167.001 38.89zm10.607-28.285c4.873-4.874 12.805-4.874 17.678 0s4.873 12.805 0 17.678c-4.873 4.874-12.805 4.874-17.678 0-4.873-4.873-4.873-12.804 0-17.678z"/><path d="m206 240.836c-4.143 0-7.5 3.358-7.5 7.5v9.608c0 4.142 3.357 7.5 7.5 7.5s7.5-3.358 7.5-7.5v-9.608c0-4.142-3.357-7.5-7.5-7.5z"/><path d="m306 265.444c4.143 0 7.5-3.358 7.5-7.5v-9.608c0-4.142-3.357-7.5-7.5-7.5s-7.5 3.358-7.5 7.5v9.608c0 4.142 3.357 7.5 7.5 7.5z"/><path d="m274.836 262.586c2.722-3.122 2.397-7.86-.725-10.582-3.124-2.723-7.862-2.398-10.582.725-1.902 2.182-4.646 3.434-7.529 3.434s-5.627-1.251-7.529-3.434c-2.723-3.122-7.458-3.447-10.582-.725-3.122 2.722-3.446 7.459-.725 10.582 4.752 5.451 11.617 8.577 18.836 8.577s14.084-3.125 18.836-8.577z"/><path d="m181.49 56.896c-2.301-3.444-6.959-4.371-10.403-2.069-3.444 2.301-4.371 6.959-2.069 10.403s6.959 4.371 10.403 2.069 4.371-6.959 2.069-10.403z"/><path d="m330.51 455.104c2.301 3.444 6.959 4.371 10.403 2.069 3.444-2.301 4.371-6.959 2.069-10.403s-6.959-4.371-10.403-2.069-4.371 6.959-2.069 10.403z"/><path d="m62.526 167.898c-4.063-.808-8.011 1.83-8.819 5.893s1.83 8.011 5.893 8.819 8.011-1.83 8.819-5.893-1.831-8.01-5.893-8.819z"/><path d="m449.474 344.102c4.063.808 8.011-1.83 8.819-5.893s-1.83-8.011-5.893-8.819-8.011 1.83-8.819 5.893 1.831 8.01 5.893 8.819z"/><path d="m54.827 340.912c2.301 3.444 6.959 4.371 10.403 2.069s4.371-6.959 2.069-10.403-6.959-4.37-10.403-2.069c-3.444 2.302-4.371 6.959-2.069 10.403z"/><path d="m444.701 179.421c2.301 3.444 6.959 4.37 10.403 2.069s4.371-6.959 2.069-10.403c-2.301-3.444-6.959-4.371-10.403-2.069s-4.37 6.959-2.069 10.403z"/><path d="m176.718 443.581c-4.063-.808-8.011 1.83-8.819 5.893s1.83 8.011 5.893 8.819 8.011-1.83 8.819-5.893-1.831-8.011-5.893-8.819z"/><path d="m335.282 68.419c4.063.808 8.011-1.83 8.819-5.893s-1.83-8.011-5.893-8.819-8.011 1.83-8.819 5.893 1.831 8.011 5.893 8.819z"/></g></g></svg>