<?xml version="1.0" encoding="utf-8"?>
<!-- Generator: Adobe Illustrator 24.1.0, SVG Export Plug-In . SVG Version: 6.00 Build 0)  -->
<svg version="1.1" xmlns="http://www.w3.org/2000/svg" xmlns:xlink="http://www.w3.org/1999/xlink" x="0px" y="0px" width="512px"
	 height="512px" viewBox="0 0 512 512" style="enable-background:new 0 0 512 512;" xml:space="preserve">
<style type="text/css">
	.st0{display:none;}
	.st1{display:inline;}
	.st2{fill:#FFFFFF;}
	.st3{fill:none;stroke:#FFFFFF;stroke-width:15.6752;stroke-miterlimit:10;}
	.st4{fill:#263978;stroke:#FFFFFF;stroke-width:14.2502;stroke-miterlimit:10;}
</style>
<g id="Capa_1" class="st0">
	<g class="st1">
		<g>
			<path d="M512,256c0-15.4-35.5-37.7-42.6-42c-0.2-0.1-0.4-0.2-0.6-0.4c12.5-17,28.7-43.7,23.7-55.6c-4.9-11.9-35.3-19.4-56.1-22.6
				c0.6-2.4,1.2-4.9,1.7-7.3c2.8-12.9,8.2-43.9-1.1-53.2c-9.3-9.3-40.3-3.9-53.2-1.1c-2.4,0.5-4.8,1.1-7.3,1.7
				c-3.2-20.8-10.7-51.2-22.6-56.1c-11.9-4.9-38.7,11.3-55.6,23.7c-0.1-0.2-0.2-0.4-0.4-0.6C293.7,35.5,271.4,0,256,0
				s-37.7,35.5-42,42.6c-0.1,0.2-0.2,0.4-0.3,0.6c-9.7-7.1-19.6-13.4-28.5-17.8C168.3,17,161.6,18,158,19.5
				c-11.9,4.9-19.4,34.8-22.6,56.1c-2.4-0.6-4.9-1.2-7.4-1.7C115.2,71.1,84.3,65.7,75,75c-9.3,9.3-3.9,40.3-1.1,53.1
				c0.5,2.5,1.1,4.9,1.7,7.4c-20.8,3.2-51.2,10.7-56.1,22.6c-4.9,11.9,11.3,38.7,23.7,55.6c-0.2,0.1-0.4,0.2-0.6,0.4
				C35.5,218.3,0,240.6,0,256s35.5,37.7,42.6,42c0.2,0.1,0.4,0.2,0.6,0.4c-12.5,17-28.7,43.7-23.7,55.6
				c4.9,11.9,35.3,19.4,56.1,22.6c-3.5,14.2-5.3,27.2-5.7,36.6c-0.2,4.1,3.1,7.6,7.2,7.8c0.1,0,0.2,0,0.3,0c4,0,7.3-3.2,7.5-7.2
				c1-25,11.5-64,29-89.4c3.1,0.3,6,0.5,8.9,0.5c18.6,0,36.7-7.8,53-22.8c8.2,14.2,20.1,26.1,34.3,34.3
				c-14.9,16.2-22.8,34.4-22.8,53c0,2.9,0.2,5.9,0.5,8.9c-25.3,17.4-64.2,27.9-89.2,29c-4.1,0.2-7.3,3.7-7.2,7.8
				c0.2,4,3.5,7.2,7.5,7.2c0.1,0,0.2,0,0.3,0c9.3-0.4,22.2-2.2,36.3-5.7c3.2,20.7,10.7,51.2,22.6,56.1c1.5,0.6,3.2,0.9,5.1,0.9
				c13.3,0,35.7-13.8,50.5-24.6c0.1,0.2,0.2,0.4,0.4,0.6c4.3,7.1,26.5,42.6,42,42.6s37.7-35.5,42-42.6c0.1-0.2,0.2-0.4,0.4-0.6
				c14.8,10.8,37.2,24.6,50.5,24.6c1.9,0,3.6-0.3,5.1-0.9c11.9-4.9,19.4-35.3,22.6-56.1c2.4,0.6,4.9,1.2,7.3,1.7
				c7.5,1.6,21.1,4.1,32.9,4.1c8.6,0,16.3-1.3,20.2-5.2c9.3-9.3,3.9-40.3,1.1-53.1c-0.5-2.5-1.1-4.9-1.7-7.4
				c20.8-3.2,51.2-10.7,56.1-22.6c4.9-11.9-11.3-38.7-23.7-55.6c0.2-0.1,0.4-0.2,0.6-0.4C476.5,293.7,512,271.4,512,256L512,256z
				 M496.8,256c-2,4.3-14.4,16.9-37.5,30.5c-25.1,14.8-50.7,23.3-70.1,23.3c-16.2,0-31.8-7.5-46.3-22.2c3.6-9.9,5.6-20.5,5.6-31.6
				c0-10.9-1.9-21.6-5.5-31.6c14.5-14.7,30-22.2,46.3-22.2c19.4,0,45,8.5,70.1,23.3C482.4,239.1,494.8,251.7,496.8,256z
				 M478.5,163.8c-0.2,5.1-7.7,22.3-22.9,42.5c-14.1-7.3-28.3-12.7-41.4-15.8c7-11.5,13.2-25.4,18.1-40.5
				C457.3,153.5,474.8,160.4,478.5,163.8z M348.2,33.5c3.5,3.7,10.3,20.9,13.8,46.2c-15.1,4.8-29,11-40.5,18.1
				c-3.1-13.1-8.5-27.2-15.8-41.4C326.1,41,343.1,33.7,348.2,33.5z M256,15.2c4.3,2,16.9,14.4,30.5,37.5
				c14.8,25.1,23.3,50.7,23.3,70.1c0,16.2-7.5,31.8-22.1,46.3c-10-3.6-20.7-5.5-31.6-5.5c-11.1,0-21.7,2-31.6,5.6
				c-14.7-14.5-22.2-30-22.2-46.3c0-19.4,8.5-45,23.3-70.1C239.1,29.6,251.7,17.2,256,15.2z M163.8,33.5c5.1,0.2,22.1,7.5,42.5,22.9
				c-7.3,14.1-12.7,28.3-15.8,41.4C179,90.8,165.1,84.6,150,79.7C153.5,54.4,160.4,37.2,163.8,33.5z M85.7,85.7
				c4-1.4,19-1.8,41.7,3.4c23.3,5.3,45,14.2,60.3,24.8c-0.3,3.1-0.5,6-0.5,8.9c0,18.6,7.8,36.7,22.8,53
				c-14.2,8.2-26.1,20.1-34.3,34.3c-16.2-14.9-34.4-22.8-53-22.8c-2.9,0-5.9,0.2-8.9,0.5c-10.5-15.3-19.5-37-24.8-60.3
				C83.9,104.7,84.3,89.7,85.7,85.7z M33.5,163.8c3.7-3.5,20.9-10.3,46.2-13.8c4.8,15.1,11,29,18.1,40.5
				c-13.1,3.1-27.2,8.5-41.4,15.8C41,185.9,33.7,168.9,33.5,163.8z M79.7,362c-25-3.5-42.5-10.4-46.2-13.8
				c0.2-5.1,7.7-22.3,22.9-42.5c14.1,7.3,28.2,12.7,41.4,15.8C90,334.1,84.1,348.2,79.7,362z M122.8,309.8c-19.4,0-45-8.5-70.1-23.3
				c-23.1-13.6-35.5-26.2-37.5-30.5c2-4.3,14.4-16.9,37.5-30.5c25.1-14.8,50.7-23.3,70.1-23.3c16.2,0,31.8,7.5,46.3,22.2
				c-3.6,9.9-5.6,20.5-5.6,31.6s2,21.7,5.6,31.6C154.6,302.3,139,309.8,122.8,309.8z M178.5,256c0-42.7,34.8-77.5,77.5-77.5
				c15.9,0,31.3,4.8,44.3,13.9c3.4,2.4,8.1,1.5,10.4-1.9s1.5-8.1-1.9-10.4c-2.2-1.6-4.5-3-6.9-4.3c14.9-16.2,22.8-34.4,22.8-53
				c0-2.9-0.2-5.9-0.5-8.9c15.3-10.5,36.9-19.4,60.2-24.7c22.8-5.2,37.9-4.8,41.8-3.4c1.4,4,1.8,19-3.4,41.8
				c-5.3,23.3-14.2,44.9-24.8,60.2c-3.1-0.3-6-0.5-8.9-0.5c-18.6,0-36.7,7.8-53,22.8c-1.3-2.3-2.8-4.6-4.3-6.9
				c-2.4-3.4-7-4.2-10.4-1.9c-3.4,2.4-4.2,7-1.9,10.4c9.1,13,13.9,28.3,13.9,44.3c0,42.7-34.8,77.5-77.5,77.5S178.5,298.7,178.5,256
				L178.5,256z M163.8,478.5c-3.5-3.7-10.3-20.9-13.8-46.2c13.8-4.4,27.9-10.3,40.5-18.1c3.1,13.1,8.5,27.2,15.8,41.4
				C185.9,471,168.9,478.3,163.8,478.5L163.8,478.5z M256,496.8c-4.3-2-16.9-14.4-30.5-37.5c-14.8-25.1-23.3-50.7-23.3-70.1
				c0-16.2,7.5-31.8,22.2-46.3c9.9,3.6,20.5,5.6,31.6,5.6c11.1,0,21.7-2,31.6-5.6c14.7,14.5,22.2,30,22.2,46.3
				c0,19.4-8.5,45-23.3,70.1C272.9,482.4,260.3,494.8,256,496.8L256,496.8z M348.2,478.5c-5.1-0.2-22.1-7.5-42.5-22.9
				c7.3-14.1,12.7-28.3,15.8-41.4c11.5,7,25.4,13.2,40.5,18.1C358.5,457.3,351.6,474.8,348.2,478.5z M426.3,426.3
				c-4,1.4-19,1.8-41.8-3.4c-23.3-5.3-45-14.2-60.3-24.8c0.3-3.1,0.5-6,0.5-8.9c0-18.6-7.8-36.7-22.8-53
				c14.2-8.2,26.1-20.1,34.3-34.3c16.2,14.9,34.4,22.8,53,22.8c2.9,0,5.9-0.2,8.9-0.5c10.5,15.3,19.5,37,24.8,60.3
				C428.1,407.3,427.7,422.3,426.3,426.3z M478.5,348.2c-3.7,3.5-20.9,10.3-46.2,13.8c-4.8-15.1-11-29-18.1-40.5
				c13.1-3.1,27.2-8.5,41.4-15.8C471,326.1,478.3,343,478.5,348.2z"/>
			<path d="M256,131.3c15.2,0,27.5-12.3,27.5-27.5S271.2,76.3,256,76.3s-27.5,12.3-27.5,27.5S240.8,131.3,256,131.3z M256,91.3
				c6.9,0,12.5,5.6,12.5,12.5s-5.6,12.5-12.5,12.5s-12.5-5.6-12.5-12.5S249.1,91.3,256,91.3z"/>
			<path d="M256,380.7c-15.2,0-27.5,12.3-27.5,27.5s12.3,27.5,27.5,27.5s27.5-12.3,27.5-27.5S271.2,380.7,256,380.7z M256,420.7
				c-6.9,0-12.5-5.6-12.5-12.5s5.6-12.5,12.5-12.5s12.5,5.6,12.5,12.5S262.9,420.7,256,420.7z"/>
			<path d="M363.6,175.9c7,0,14.1-2.7,19.4-8c10.7-10.7,10.7-28.2,0-38.9c-10.7-10.7-28.2-10.7-38.9,0c-10.7,10.7-10.7,28.2,0,38.9
				C349.5,173.2,356.6,175.9,363.6,175.9z M354.8,139.6c2.4-2.4,5.6-3.7,8.8-3.7s6.4,1.2,8.8,3.7c4.9,4.9,4.9,12.8,0,17.7
				c-4.9,4.9-12.8,4.9-17.7,0C349.9,152.4,349.9,144.4,354.8,139.6L354.8,139.6z"/>
			<path d="M167.9,383c10.7-10.7,10.7-28.2,0-38.9c-10.7-10.7-28.2-10.7-38.9,0c-10.7,10.7-10.7,28.2,0,38.9c5.4,5.4,12.4,8,19.4,8
				S162.5,388.4,167.9,383L167.9,383z M139.6,354.8c2.4-2.4,5.6-3.7,8.8-3.7s6.4,1.2,8.8,3.7c4.9,4.9,4.9,12.8,0,17.7
				c-4.9,4.9-12.8,4.9-17.7,0S134.7,359.6,139.6,354.8L139.6,354.8z"/>
			<path d="M408.2,228.5c-15.2,0-27.5,12.3-27.5,27.5s12.3,27.5,27.5,27.5s27.5-12.3,27.5-27.5S423.3,228.5,408.2,228.5z
				 M408.2,268.5c-6.9,0-12.5-5.6-12.5-12.5s5.6-12.5,12.5-12.5s12.5,5.6,12.5,12.5S415.1,268.5,408.2,268.5z"/>
			<path d="M103.8,228.5c-15.2,0-27.5,12.3-27.5,27.5s12.3,27.5,27.5,27.5s27.5-12.3,27.5-27.5S119,228.5,103.8,228.5z M103.8,268.5
				c-6.9,0-12.5-5.6-12.5-12.5s5.6-12.5,12.5-12.5s12.5,5.6,12.5,12.5S110.7,268.5,103.8,268.5z"/>
			<path d="M344.1,344.1c-10.7,10.7-10.7,28.2,0,38.9c5.4,5.4,12.4,8,19.4,8s14.1-2.7,19.4-8c10.7-10.7,10.7-28.2,0-38.9
				C372.3,333.4,354.9,333.4,344.1,344.1L344.1,344.1z M372.4,372.4c-4.9,4.9-12.8,4.9-17.7,0c-4.9-4.9-4.9-12.8,0-17.7
				c4.9-4.9,12.8-4.9,17.7,0C377.3,359.6,377.3,367.6,372.4,372.4z"/>
			<path d="M129,167.9c5.4,5.4,12.4,8,19.4,8s14.1-2.7,19.4-8c10.7-10.7,10.7-28.2,0-38.9c-10.7-10.7-28.2-10.7-38.9,0
				C118.2,139.7,118.2,157.1,129,167.9L129,167.9z M139.6,139.6c4.9-4.9,12.8-4.9,17.7,0s4.9,12.8,0,17.7c-4.9,4.9-12.8,4.9-17.7,0
				C134.7,152.4,134.7,144.4,139.6,139.6z"/>
			<path d="M206,240.8c-4.1,0-7.5,3.4-7.5,7.5v9.6c0,4.1,3.4,7.5,7.5,7.5s7.5-3.4,7.5-7.5v-9.6C213.5,244.2,210.1,240.8,206,240.8z"
				/>
			<path d="M306,265.4c4.1,0,7.5-3.4,7.5-7.5v-9.6c0-4.1-3.4-7.5-7.5-7.5s-7.5,3.4-7.5,7.5v9.6C298.5,262.1,301.9,265.4,306,265.4z"
				/>
			<path d="M274.8,262.6c2.7-3.1,2.4-7.9-0.7-10.6c-3.1-2.7-7.9-2.4-10.6,0.7c-1.9,2.2-4.6,3.4-7.5,3.4s-5.6-1.3-7.5-3.4
				c-2.7-3.1-7.5-3.4-10.6-0.7c-3.1,2.7-3.4,7.5-0.7,10.6c4.8,5.5,11.6,8.6,18.8,8.6S270.1,268,274.8,262.6L274.8,262.6z"/>
			<path d="M181.5,56.9c-2.3-3.4-7-4.4-10.4-2.1c-3.4,2.3-4.4,7-2.1,10.4c2.3,3.4,7,4.4,10.4,2.1S183.8,60.3,181.5,56.9z"/>
			<path d="M330.5,455.1c2.3,3.4,7,4.4,10.4,2.1c3.4-2.3,4.4-7,2.1-10.4s-7-4.4-10.4-2.1S328.2,451.7,330.5,455.1L330.5,455.1z"/>
			<path d="M62.5,167.9c-4.1-0.8-8,1.8-8.8,5.9s1.8,8,5.9,8.8s8-1.8,8.8-5.9S66.6,168.7,62.5,167.9z"/>
			<path d="M449.5,344.1c4.1,0.8,8-1.8,8.8-5.9s-1.8-8-5.9-8.8s-8,1.8-8.8,5.9S445.4,343.3,449.5,344.1z"/>
			<path d="M54.8,340.9c2.3,3.4,7,4.4,10.4,2.1c3.4-2.3,4.4-7,2.1-10.4s-7-4.4-10.4-2.1C53.5,332.8,52.5,337.5,54.8,340.9z"/>
			<path d="M444.7,179.4c2.3,3.4,7,4.4,10.4,2.1s4.4-7,2.1-10.4c-2.3-3.4-7-4.4-10.4-2.1S442.4,176,444.7,179.4L444.7,179.4z"/>
			<path d="M176.7,443.6c-4.1-0.8-8,1.8-8.8,5.9s1.8,8,5.9,8.8s8-1.8,8.8-5.9S180.8,444.4,176.7,443.6z"/>
			<path d="M335.3,68.4c4.1,0.8,8-1.8,8.8-5.9s-1.8-8-5.9-8.8s-8,1.8-8.8,5.9S331.2,67.6,335.3,68.4z"/>
		</g>
	</g>
</g>
<g id="Layer_2">
	<g>
		<g>
			<path class="st2" d="M511.5,255.5c0-15.5-35.6-37.8-42.7-42.1c-0.2-0.1-0.4-0.2-0.6-0.4c12.5-17,28.7-43.8,23.8-55.7
				c-4.9-11.9-35.4-19.4-56.2-22.6c0.6-2.4,1.2-4.9,1.7-7.3c2.8-12.9,8.2-43.9-1.1-53.3c-9.3-9.3-40.4-3.9-53.3-1.1
				c-2.4,0.5-4.9,1.1-7.3,1.7c-3.2-20.8-10.7-51.3-22.6-56.2c-11.9-4.9-38.7,11.3-55.7,23.8c-0.1-0.2-0.2-0.4-0.4-0.6
				C292.8,34.6,270.5-1,255-1s-37.8,35.6-42.1,42.7c-0.1,0.2-0.2,0.4-0.3,0.6c-9.7-7.2-19.6-13.4-28.6-17.8
				c-16.9-8.4-23.6-7.4-27.2-5.9c-11.9,4.9-19.4,34.9-22.6,56.2c-2.4-0.6-4.9-1.2-7.4-1.7c-12.9-2.8-43.9-8.2-53.2,1.1
				c-9.3,9.3-3.9,40.3-1.1,53.2c0.5,2.5,1.1,4.9,1.7,7.4C53.4,137.9,23,145.4,18,157.3c-4.9,11.9,11.3,38.7,23.8,55.7
				c-0.2,0.1-0.4,0.2-0.6,0.4c-7.1,4.3-42.7,26.6-42.7,42.1s35.6,37.8,42.7,42.1c0.2,0.1,0.4,0.2,0.6,0.4
				c-12.5,17-28.7,43.8-23.8,55.7c4.9,11.9,35.4,19.4,56.2,22.6c-3.5,14.2-5.3,27.3-5.7,36.7c-0.2,4.1,3.1,7.6,7.2,7.8
				c0.1,0,0.2,0,0.3,0c4,0,7.3-3.2,7.5-7.2c1-25.1,11.5-64.1,29.1-89.6c3.1,0.3,6.1,0.5,8.9,0.5c18.6,0,36.8-7.9,53.1-22.8
				c8.2,14.3,20.1,26.2,34.4,34.4c-15,16.3-22.8,34.4-22.8,53.1c0,2.9,0.2,5.9,0.5,8.9c-25.4,17.5-64.3,28-89.3,29
				c-4.1,0.2-7.4,3.7-7.2,7.8c0.2,4,3.5,7.2,7.5,7.2c0.1,0,0.2,0,0.3,0c9.3-0.4,22.2-2.2,36.4-5.7c3.2,20.8,10.7,51.3,22.6,56.2
				c1.5,0.6,3.2,0.9,5.2,0.9c13.4,0,35.7-13.8,50.6-24.7c0.1,0.2,0.2,0.4,0.4,0.6c4.3,7.1,26.6,42.7,42.1,42.7s37.8-35.6,42.1-42.7
				c0.1-0.2,0.2-0.4,0.4-0.6c14.8,10.9,37.2,24.7,50.6,24.7c1.9,0,3.6-0.3,5.1-0.9c11.9-4.9,19.4-35.4,22.6-56.2
				c2.4,0.6,4.9,1.2,7.4,1.7c7.5,1.6,21.1,4.1,33,4.1c8.6,0,16.3-1.3,20.2-5.2c9.3-9.3,3.9-40.3,1.1-53.2c-0.5-2.5-1.1-4.9-1.7-7.4
				c20.8-3.2,51.3-10.7,56.2-22.6c4.9-11.9-11.3-38.8-23.8-55.7c0.2-0.1,0.4-0.2,0.6-0.4C475.9,293.3,511.5,271,511.5,255.5
				L511.5,255.5z M496.3,255.5c-2,4.3-14.4,17-37.6,30.6c-25.2,14.8-50.8,23.3-70.3,23.3c-16.3,0-31.9-7.5-46.4-22.2
				c3.6-9.9,5.6-20.5,5.6-31.6c0-10.9-1.9-21.6-5.6-31.7c14.5-14.7,30.1-22.2,46.4-22.2c19.5,0,45.1,8.5,70.3,23.3
				C481.9,238.5,494.3,251.2,496.3,255.5z M477.9,163.2c-0.2,5.1-7.7,22.3-23,42.5c-14.2-7.3-28.3-12.7-41.5-15.8
				c7.1-11.5,13.3-25.5,18.1-40.6C456.7,152.8,474.2,159.7,477.9,163.2z M347.3,32.6c3.5,3.7,10.3,20.9,13.9,46.3
				c-15.1,4.8-29,11-40.6,18.1c-3.2-13.2-8.5-27.3-15.8-41.5C325.2,40.1,342.2,32.7,347.3,32.6z M255,14.2c4.3,2,17,14.4,30.6,37.6
				c14.8,25.2,23.3,50.8,23.3,70.3c0,16.3-7.5,31.8-22.2,46.4c-10.1-3.7-20.7-5.6-31.7-5.6c-11.1,0-21.8,2-31.6,5.6
				c-14.7-14.5-22.2-30.1-22.2-46.4c0-19.5,8.5-45.1,23.3-70.3C238,28.6,250.7,16.2,255,14.2z M162.7,32.6c5.1,0.2,22.1,7.5,42.6,23
				c-7.3,14.2-12.7,28.3-15.8,41.5c-11.5-7.1-25.5-13.3-40.6-18.1C152.3,53.5,159.2,36.3,162.7,32.6z M84.4,84.9
				c4-1.4,19-1.8,41.8,3.4c23.3,5.3,45.1,14.3,60.4,24.8c-0.3,3.1-0.5,6.1-0.5,8.9c0,18.6,7.9,36.8,22.8,53.1
				c-14.3,8.2-26.2,20.1-34.4,34.4c-16.3-15-34.4-22.8-53.1-22.8c-2.9,0-5.9,0.2-8.9,0.5C102,171.8,93.1,150,87.8,126.7
				C82.6,103.9,83,88.9,84.4,84.9z M32.1,163.2c3.7-3.5,20.9-10.3,46.3-13.9c4.8,15.1,11,29,18.1,40.6c-13.2,3.2-27.3,8.5-41.5,15.8
				C39.6,185.3,32.2,168.3,32.1,163.2z M78.3,361.7c-25-3.5-42.6-10.4-46.3-13.8c0.2-5.1,7.7-22.3,23-42.5
				c14.2,7.3,28.3,12.7,41.4,15.8C88.7,333.7,82.7,347.9,78.3,361.7z M121.5,309.4c-19.5,0-45.1-8.5-70.3-23.3
				c-23.1-13.6-35.5-26.3-37.6-30.6c2-4.3,14.4-17,37.6-30.6c25.2-14.8,50.8-23.3,70.3-23.3c16.3,0,31.9,7.5,46.4,22.2
				c-3.6,9.9-5.6,20.5-5.6,31.6c0,11.1,2,21.8,5.6,31.6C153.4,301.9,137.8,309.4,121.5,309.4z M177.3,255.5
				c0-42.8,34.8-77.7,77.7-77.7c16,0,31.3,4.8,44.4,13.9c3.4,2.4,8.1,1.5,10.5-1.9c2.4-3.4,1.5-8.1-1.9-10.5c-2.2-1.6-4.5-3-6.9-4.4
				c15-16.3,22.8-34.4,22.8-53.1c0-2.9-0.2-5.9-0.5-8.9c15.3-10.5,37-19.5,60.3-24.8c22.9-5.2,37.9-4.9,41.9-3.4
				c1.4,4,1.8,19-3.4,41.9c-5.3,23.3-14.3,45-24.8,60.4c-3.1-0.3-6.1-0.5-8.9-0.5c-18.6,0-36.8,7.9-53.1,22.8
				c-1.3-2.3-2.8-4.6-4.4-6.9c-2.4-3.4-7.1-4.2-10.5-1.9c-3.4,2.4-4.2,7.1-1.9,10.5c9.1,13,13.9,28.4,13.9,44.4
				c0,42.8-34.8,77.7-77.7,77.7S177.3,298.3,177.3,255.5L177.3,255.5z M162.7,478.4c-3.5-3.7-10.3-20.9-13.8-46.3
				c13.8-4.4,28-10.3,40.6-18.1c3.2,13.2,8.5,27.3,15.8,41.4C184.8,470.9,167.8,478.3,162.7,478.4L162.7,478.4z M255,496.8
				c-4.3-2-17-14.4-30.6-37.6c-14.8-25.2-23.3-50.8-23.3-70.3c0-16.3,7.5-31.9,22.2-46.4c9.9,3.6,20.5,5.6,31.6,5.6
				c11.1,0,21.8-2,31.6-5.6c14.7,14.5,22.2,30.1,22.2,46.4c0,19.5-8.5,45.1-23.3,70.3C272,482.4,259.3,494.8,255,496.8L255,496.8z
				 M347.3,478.4c-5.1-0.2-22.1-7.5-42.5-23c7.3-14.2,12.7-28.3,15.8-41.5c11.5,7.1,25.5,13.3,40.6,18.1
				C357.7,457.2,350.8,474.7,347.3,478.4z M425.6,426.1c-4,1.4-19,1.8-41.8-3.4c-23.3-5.3-45-14.3-60.4-24.8
				c0.3-3.1,0.5-6.1,0.5-8.9c0-18.6-7.9-36.8-22.8-53.1c14.3-8.2,26.2-20.1,34.4-34.4c16.3,15,34.4,22.8,53.1,22.8
				c2.9,0,5.9-0.2,8.9-0.5c10.5,15.3,19.5,37.1,24.8,60.4C427.4,407.1,427,422.1,425.6,426.1z M477.9,347.8
				c-3.7,3.5-20.9,10.3-46.3,13.9c-4.8-15.1-11-29-18.1-40.6c13.2-3.2,27.3-8.5,41.5-15.8C470.4,325.7,477.8,342.7,477.9,347.8z"/>
			<path class="st2" d="M255,130.6c15.2,0,27.6-12.4,27.6-27.6S270.2,75.5,255,75.5c-15.2,0-27.6,12.4-27.6,27.6
				S239.8,130.6,255,130.6z M255,90.5c6.9,0,12.5,5.6,12.5,12.5c0,6.9-5.6,12.5-12.5,12.5s-12.5-5.6-12.5-12.5
				C242.5,96.1,248.1,90.5,255,90.5z"/>
			<path class="st2" d="M255,380.4c-15.2,0-27.6,12.4-27.6,27.6c0,15.2,12.4,27.6,27.6,27.6c15.2,0,27.6-12.4,27.6-27.6
				C282.6,392.8,270.2,380.4,255,380.4z M255,420.5c-6.9,0-12.5-5.6-12.5-12.5c0-6.9,5.6-12.5,12.5-12.5s12.5,5.6,12.5,12.5
				C267.5,414.9,261.9,420.5,255,420.5z"/>
			<path class="st2" d="M362.8,175.2c7.1,0,14.1-2.7,19.5-8.1c10.7-10.7,10.7-28.2,0-39c-10.7-10.7-28.2-10.7-39,0
				c-10.7,10.7-10.7,28.2,0,39C348.7,172.6,355.7,175.2,362.8,175.2z M353.9,138.8c2.4-2.4,5.6-3.7,8.9-3.7s6.4,1.2,8.9,3.7
				c4.9,4.9,4.9,12.8,0,17.7c-4.9,4.9-12.8,4.9-17.7,0C349.1,151.7,349.1,143.7,353.9,138.8L353.9,138.8z"/>
			<path class="st2" d="M166.7,382.8c10.7-10.7,10.7-28.2,0-39c-10.7-10.7-28.2-10.7-39,0c-10.7,10.7-10.7,28.2,0,39
				c5.4,5.4,12.4,8.1,19.5,8.1S161.3,388.2,166.7,382.8L166.7,382.8z M138.3,354.4c2.4-2.4,5.6-3.7,8.9-3.7s6.4,1.2,8.9,3.7
				c4.9,4.9,4.9,12.8,0,17.7c-4.9,4.9-12.8,4.9-17.7,0C133.5,367.3,133.5,359.3,138.3,354.4L138.3,354.4z"/>
			<path class="st2" d="M407.5,227.9c-15.2,0-27.6,12.4-27.6,27.6c0,15.2,12.4,27.6,27.6,27.6c15.2,0,27.6-12.4,27.6-27.6
				C435,240.3,422.7,227.9,407.5,227.9z M407.5,268c-6.9,0-12.5-5.6-12.5-12.5s5.6-12.5,12.5-12.5s12.5,5.6,12.5,12.5
				S414.4,268,407.5,268z"/>
			<path class="st2" d="M102.5,227.9c-15.2,0-27.6,12.4-27.6,27.6c0,15.2,12.4,27.6,27.6,27.6s27.6-12.4,27.6-27.6
				C130.1,240.3,117.7,227.9,102.5,227.9z M102.5,268c-6.9,0-12.5-5.6-12.5-12.5s5.6-12.5,12.5-12.5c6.9,0,12.5,5.6,12.5,12.5
				S109.4,268,102.5,268z"/>
			<path class="st2" d="M343.3,343.8c-10.7,10.7-10.7,28.2,0,39c5.4,5.4,12.4,8.1,19.5,8.1s14.1-2.7,19.5-8.1
				c10.7-10.7,10.7-28.2,0-39C371.5,333.1,354.1,333.1,343.3,343.8L343.3,343.8z M371.7,372.2c-4.9,4.9-12.8,4.9-17.7,0
				c-4.9-4.9-4.9-12.8,0-17.7c4.9-4.9,12.8-4.9,17.7,0C376.5,359.3,376.5,367.3,371.7,372.2z"/>
			<path class="st2" d="M127.7,167.2c5.4,5.4,12.4,8.1,19.5,8.1s14.1-2.7,19.5-8.1c10.7-10.7,10.7-28.2,0-39
				c-10.7-10.7-28.2-10.7-39,0C117,139,117,156.4,127.7,167.2L127.7,167.2z M138.3,138.8c4.9-4.9,12.8-4.9,17.7,0
				c4.9,4.9,4.9,12.8,0,17.7c-4.9,4.9-12.8,4.9-17.7,0C133.5,151.7,133.5,143.7,138.3,138.8z"/>
			<path class="st2" d="M180.3,56c-2.3-3.5-7-4.4-10.4-2.1c-3.5,2.3-4.4,7-2.1,10.4c2.3,3.5,7,4.4,10.4,2.1
				C181.7,64.1,182.7,59.5,180.3,56z"/>
			<path class="st2" d="M329.7,455c2.3,3.5,7,4.4,10.4,2.1c3.5-2.3,4.4-7,2.1-10.4c-2.3-3.5-7-4.4-10.4-2.1S327.3,451.5,329.7,455
				L329.7,455z"/>
			<path class="st2" d="M61.1,167.2c-4.1-0.8-8,1.8-8.8,5.9c-0.8,4.1,1.8,8,5.9,8.8c4.1,0.8,8-1.8,8.8-5.9
				C67.9,172,65.2,168,61.1,167.2z"/>
			<path class="st2" d="M448.9,343.8c4.1,0.8,8-1.8,8.8-5.9c0.8-4.1-1.8-8-5.9-8.8c-4.1-0.8-8,1.8-8.8,5.9S444.8,343,448.9,343.8z"
				/>
			<path class="st2" d="M53.4,340.6c2.3,3.5,7,4.4,10.4,2.1c3.5-2.3,4.4-7,2.1-10.4c-2.3-3.5-7-4.4-10.4-2.1
				C52.1,332.5,51.1,337.1,53.4,340.6z"/>
			<path class="st2" d="M444.1,178.8c2.3,3.5,7,4.4,10.4,2.1c3.5-2.3,4.4-7,2.1-10.4c-2.3-3.5-7-4.4-10.4-2.1
				C442.7,170.7,441.8,175.3,444.1,178.8L444.1,178.8z"/>
			<path class="st2" d="M175.6,443.4c-4.1-0.8-8,1.8-8.8,5.9c-0.8,4.1,1.8,8,5.9,8.8c4.1,0.8,8-1.8,8.8-5.9
				C182.3,448.2,179.6,444.3,175.6,443.4z"/>
			<path class="st2" d="M334.4,67.6c4.1,0.8,8-1.8,8.8-5.9c0.8-4.1-1.8-8-5.9-8.8c-4.1-0.8-8,1.8-8.8,5.9S330.4,66.7,334.4,67.6z"/>
		</g>
	</g>
	<path class="st3" d="M106,316.1c0,0-39.9,76.9-28,116.4c49.4,12.4,116.1-28.8,116.1-28.8"/>
	<path class="st4" d="M332.8,220.1c0,0-13.9-29.9-42.6-42.2"/>
</g>
</svg>
