<svg xmlns="http://www.w3.org/2000/svg" width="33.25" height="38" viewBox="0 0 33.25 38">
  <path id="Icon_awesome-bell" data-name="Icon awesome-bell" d="M16.625,38a4.749,4.749,0,0,0,4.748-4.75h-9.5A4.749,4.749,0,0,0,16.625,38ZM32.611,26.889c-1.434-1.541-4.117-3.859-4.117-11.451A11.72,11.72,0,0,0,19,3.922V2.375a2.374,2.374,0,1,0-4.747,0V3.922a11.72,11.72,0,0,0-9.5,11.516c0,7.593-2.683,9.91-4.117,11.451A2.319,2.319,0,0,0,0,28.5a2.377,2.377,0,0,0,2.382,2.375H30.868A2.377,2.377,0,0,0,33.25,28.5a2.318,2.318,0,0,0-.639-1.611Z" transform="translate(0)" fill="#fff"/>
</svg>
